{
	"asset":{
		"generator":"Khronos glTF Blender I/O v4.0.43",
		"version":"2.0"
	},
	"scene":0,
	"scenes":[
		{
			"name":"Scene",
			"nodes":[
				1
			]
		}
	],
	"nodes":[
		{
			"mesh":0,
			"name":"Lenses",
			"translation":[
				0,
				0.025104619562625885,
				0.0005213059484958649
			]
		},
		{
			"children":[
				0
			],
			"mesh":1,
			"name":"Aviator Glasses",
			"translation":[
				0,
				0.06234551966190338,
				0.06154190003871918
			]
		}
	],
	"materials":[
		{
			"alphaCutoff":0.5,
			"alphaMode":"MASK",
			"doubleSided":true,
			"name":"Aviator Glasses",
			"normalTexture":{
				"index":0,
				"scale":0.5
			},
			"pbrMetallicRoughness":{
				"baseColorFactor":[
					1,
					1,
					1,
					0.6363636255264282
				],
				"baseColorTexture":{
					"index":1
				},
				"metallicRoughnessTexture":{
					"index":2
				}
			}
		}
	],
	"meshes":[
		{
			"name":"Vert.015",
			"primitives":[
				{
					"attributes":{
						"POSITION":0,
						"NORMAL":1,
						"TEXCOORD_0":2
					},
					"indices":3,
					"material":0
				}
			]
		},
		{
			"name":"Vert.005",
			"primitives":[
				{
					"attributes":{
						"POSITION":4,
						"NORMAL":5,
						"TEXCOORD_0":6
					},
					"indices":7,
					"material":0
				}
			]
		}
	],
	"textures":[
		{
			"sampler":0,
			"source":0
		},
		{
			"sampler":0,
			"source":1
		},
		{
			"sampler":0,
			"source":2
		}
	],
	"images":[
		{
			"mimeType":"image/jpeg",
			"name":"Normal",
			"uri":"Normal.jpg"
		},
		{
			"mimeType":"image/jpeg",
			"name":"BaseColor",
			"uri":"BaseColor.jpg"
		},
		{
			"mimeType":"image/png",
			"name":"Roughness.jpg",
			"uri":"Roughness.png"
		}
	],
	"accessors":[
		{
			"bufferView":0,
			"componentType":5126,
			"count":2259,
			"max":[
				0.064610555768013,
				0.024222860112786293,
				-0.0007280036807060242
			],
			"min":[
				-0.06459867209196091,
				-0.02424938604235649,
				-0.008944913744926453
			],
			"type":"VEC3"
		},
		{
			"bufferView":1,
			"componentType":5126,
			"count":2259,
			"type":"VEC3"
		},
		{
			"bufferView":2,
			"componentType":5126,
			"count":2259,
			"type":"VEC2"
		},
		{
			"bufferView":3,
			"componentType":5123,
			"count":11424,
			"type":"SCALAR"
		},
		{
			"bufferView":4,
			"componentType":5126,
			"count":22387,
			"max":[
				0.0816141739487648,
				0.05091799050569534,
				0.0007804766646586359
			],
			"min":[
				-0.0816141813993454,
				-8.415150659857318e-06,
				-0.1312447041273117
			],
			"type":"VEC3"
		},
		{
			"bufferView":5,
			"componentType":5126,
			"count":22387,
			"type":"VEC3"
		},
		{
			"bufferView":6,
			"componentType":5126,
			"count":22387,
			"type":"VEC2"
		},
		{
			"bufferView":7,
			"componentType":5123,
			"count":97944,
			"type":"SCALAR"
		}
	],
	"bufferViews":[
		{
			"buffer":0,
			"byteLength":27108,
			"byteOffset":0,
			"target":34962
		},
		{
			"buffer":0,
			"byteLength":27108,
			"byteOffset":27108,
			"target":34962
		},
		{
			"buffer":0,
			"byteLength":18072,
			"byteOffset":54216,
			"target":34962
		},
		{
			"buffer":0,
			"byteLength":22848,
			"byteOffset":72288,
			"target":34963
		},
		{
			"buffer":0,
			"byteLength":268644,
			"byteOffset":95136,
			"target":34962
		},
		{
			"buffer":0,
			"byteLength":268644,
			"byteOffset":363780,
			"target":34962
		},
		{
			"buffer":0,
			"byteLength":179096,
			"byteOffset":632424,
			"target":34962
		},
		{
			"buffer":0,
			"byteLength":195888,
			"byteOffset":811520,
			"target":34963
		}
	],
	"samplers":[
		{
			"magFilter":9729,
			"minFilter":9987
		}
	],
	"buffers":[
		{
			"byteLength":1007408,
			"uri":"glass_test.bin"
		}
	]
}
